<svg width="200" height="200" viewBox="0 0 200 200" fill="none" xmlns="http://www.w3.org/2000/svg">
  <path d="M100 0C44.8 0 0 44.8 0 100C0 155.2 44.8 200 100 200C155.2 200 200 155.2 200 100C200 44.8 155.2 0 100 0Z" fill="#F04E23"/>
  <path d="M142.9 57.1C136.4 50.6 127.1 47 117.1 47C107.1 47 97.9 50.6 91.4 57.1L88.6 59.9L85.8 57.1C79.3 50.6 70 47 60 47C50 47 40.7 50.6 34.2 57.1C21.2 70.1 21.2 91.2 34.2 104.2L85.8 155.8C86.9 156.9 88.4 157.5 89.9 157.5C91.4 157.5 92.9 156.9 94 155.8L145.6 104.2C158.8 91.2 158.8 70.1 142.9 57.1Z" fill="white"/>
</svg>