<svg width="200" height="200" viewBox="0 0 200 200" fill="none" xmlns="http://www.w3.org/2000/svg">
  <rect width="200" height="200" rx="100" fill="#7D3BF1"/>
  <path d="M142.857 71.4286C142.857 83.0357 133.036 92.8571 121.429 92.8571C109.821 92.8571 100 83.0357 100 71.4286C100 59.8214 109.821 50 121.429 50C133.036 50 142.857 59.8214 142.857 71.4286Z" fill="white"/>
  <path d="M92.8571 107.143C92.8571 118.75 83.0357 128.571 71.4286 128.571C59.8214 128.571 50 118.75 50 107.143C50 95.5357 59.8214 85.7143 71.4286 85.7143C83.0357 85.7143 92.8571 95.5357 92.8571 107.143Z" fill="white"/>
  <path d="M150 128.571C150 140.179 140.179 150 128.571 150C116.964 150 107.143 140.179 107.143 128.571C107.143 116.964 116.964 107.143 128.571 107.143C140.179 107.143 150 116.964 150 128.571Z" fill="white"/>
</svg>